# xmcd CD database file
#
# Track frame offsets:
#	150
#	10072
#	20748
#	30423
#	41691
#	54346
#	64916
#	81599
#	91431
#	107044
#	121102
#	134254
#	148355
#	160965
#	172887
#	185254
#	218815
#	230359
#
# Disc length: 3203 seconds
#
# Revision: 0
# Processed by: cddbd v1.5.2PL0 Copyright (c) Steve Scherf et al.
# Submitted via: CDex 1.51
#
DISCID=f40c8112
DTITLE=Buddy Guy - Stone Crazy
DYEAR=1981
DGENRE=Blues
TTITLE0=First Time I Met The Blues
TTITLE1=I Got My Eyes On You
TTITLE2=Slop Around
TTITLE3=Watch Yourself
TTITLE4=When My Left Eye Jumps
TTITLE5=BHard But It's Fair
TTITLE6=Buddy Guy - Every Girl I See
TTITLE7=Buddy Guy - Baby (Baby, Baby, Baby)
TTITLE8=Buddy Guy - Leave My Girl Alone
TTITLE9=Buddy Guy - Hully Gully
TTITLE10=Buddy Guy - Let Me Love You baby
TTITLE11=Buddy Guy - I Got A Strange Feeling
TTITLE12=Buddy Guy - I Suffer With The Blues
TTITLE13=Buddy Guy - Ten Years Ago
TTITLE14=Buddy Guy - Mother-In-Law Blues
TTITLE15=Buddy Guy - Stone Crazy
TTITLE16=Buddy Guy - No Lie
TTITLE17=Buddy Guy - $100 Bill
EXTD=YEAR: 1981
EXTT0=
EXTT1=
EXTT2=
EXTT3=
EXTT4=
EXTT5=
EXTT6=
EXTT7=
EXTT8=
EXTT9=
EXTT10=
EXTT11=
EXTT12=
EXTT13=
EXTT14=
EXTT15=
EXTT16=
EXTT17=
PLAYORDER=
